<svg width="24" height="18" viewBox="0 0 24 18" fill="none" xmlns="http://www.w3.org/2000/svg">
<path d="M1 9C1 9 5 1 12 1C19 1 23 9 23 9C23 9 19 17 12 17C5 17 1 9 1 9Z" stroke="#3D3C3E" stroke-opacity="0.4" stroke-width="2" stroke-linecap="round" stroke-linejoin="round"/>
<path d="M12 12C13.6569 12 15 10.6569 15 9C15 7.34315 13.6569 6 12 6C10.3431 6 9 7.34315 9 9C9 10.6569 10.3431 12 12 12Z" fill="#39A935" fill-opacity="0.6"/>
<path d="M12 12.5C13.933 12.5 15.5 10.933 15.5 9C15.5 7.067 13.933 5.5 12 5.5C10.067 5.5 8.5 7.067 8.5 9C8.5 10.933 10.067 12.5 12 12.5Z" stroke="#3D3C3E" stroke-opacity="0.4" stroke-linecap="round" stroke-linejoin="round"/>
</svg>
